<svg width="61" height="46" viewBox="0 0 61 46" fill="none" xmlns="http://www.w3.org/2000/svg">
<g clip-path="url(#clip0_1_365)">
<path d="M19.2992 44.7375C19.8584 40.1055 16.6253 36.6471 13.1803 33.9799C11.1737 32.424 9.21221 31.126 7.90455 28.8989C7.2372 27.7565 6.5969 26.4673 6.22264 25.2004C5.49215 22.7333 6.75472 18.857 9.87957 21.702C11.6787 23.3423 12.0936 25.4583 13.4689 27.2808C14.2444 28.3121 15.4349 28.8634 16.6749 28.2055C20.404 26.2317 17.5181 19.386 16.6839 16.6654C15.6738 13.3715 15.1418 10.202 16.8417 7.03247C17.4009 5.99227 18.0276 4.92095 18.7446 3.98299C19.209 3.37843 19.7997 2.72497 20.4626 2.30711C21.8334 1.43584 22.6585 1.43584 24.1736 1.89815C25.7879 2.39158 25.8014 2.47604 26.1306 4.00522C26.2839 4.71202 26.347 5.48995 26.3831 6.21898C26.4598 7.7615 26.3335 9.31736 26.0134 10.8332C25.4136 13.7093 23.6866 16.252 23.3079 19.1726C23.0283 21.3197 23.2222 28.1432 26.8115 27.5031C31.0185 26.7518 30.7164 20.0928 34.9099 19.2037C38.4 18.4613 40.1045 22.2443 38.6255 24.8404C37.8229 26.254 36.4882 27.3475 35.203 28.3121C32.9124 30.0325 30.1122 30.9304 27.8621 32.6685C23.7903 35.8247 25.1431 40.7857 26.816 44.8531C27.1407 45.6399 28.4483 45.2932 28.1191 44.4975C26.9919 41.7547 25.576 38.3985 27.1001 35.518C28.5114 32.8508 32.236 31.9173 34.6394 30.3436C37.886 28.2188 42.544 24.218 39.7934 20.0083C37.4937 16.4832 33.0386 17.6612 30.9374 20.6129C30.3016 21.5064 29.8101 22.4888 29.2464 23.4268C28.9894 23.8535 28.7324 24.2847 28.4303 24.6848C28.2138 24.9426 27.9974 25.196 27.781 25.4538C26.072 25.8272 25.1882 25.3782 25.1296 24.098C23.4161 20.5062 25.4903 16.8255 26.6537 13.5137C27.5194 11.051 27.8892 8.4283 27.7043 5.8278C27.578 4.02745 27.3887 1.59142 25.6707 0.515657C24.1601 -0.431192 21.8379 0.111135 20.3544 0.849055C18.1449 1.95149 16.7921 4.28972 15.6738 6.37012C12.8015 11.7134 15.7009 16.421 16.7696 21.8042C16.9094 22.5199 17.2656 24.0891 17.0266 24.8848C16.2961 25.5427 15.5656 26.1962 14.8306 26.8541C14.4113 26.3251 14.0956 25.7472 13.8747 25.1115C13.4508 24.1825 13.0044 23.3156 12.3867 22.4888C11.4127 21.1819 9.57295 19.0348 7.69262 19.1415C5.86641 19.2482 4.79323 21.1508 4.59934 22.7377C4.31075 25.0848 5.58684 27.5876 6.74119 29.5791C9.9427 35.0957 18.8663 37.1272 17.9465 44.7464C17.8473 45.5866 19.2 45.5821 19.2992 44.7375Z" fill="#46A358"/>
<path d="M30.9869 22.5733C31.9609 17.7057 30.1212 13.2559 29.7379 8.45056C29.5079 5.57889 30.748 0.986893 34.689 2.29381C37.6244 3.26733 38.7382 6.71689 38.5398 9.47742C38.3955 11.4956 37.4125 17.4167 41.3535 16.8655C44.7354 16.3943 46.4804 10.8377 48.1218 8.48167C49.5286 6.46351 52.6354 3.51627 55.368 4.33865C59.6968 5.64112 56.9237 10.7621 54.9306 12.7758C51.5713 16.1676 47.991 19.1682 45.0285 22.9467C43.3105 25.1382 41.8225 28.7389 45.6327 29.7213C47.0982 30.0992 48.5096 29.5969 49.8307 29.0012C50.8949 28.5211 51.9095 27.9477 53.0413 27.632C55.1065 27.0541 57.5008 27.5076 56.1346 30.0369C52.9376 35.9625 45.6192 31.5928 40.8981 34.0777C36.8939 36.1892 35.9605 40.8568 36.3393 44.9509C36.416 45.8 37.7732 45.8089 37.6921 44.9509C37.426 42.0971 37.656 39.012 39.6581 36.7494C42.2463 33.8243 45.7003 34.8912 49.1273 34.8245C52.6264 34.7579 57.1311 33.0864 57.8571 29.2323C58.6507 25.0093 53.7718 25.8272 51.2692 26.8452C50.1644 27.2942 49.1318 27.9921 47.9775 28.3211C47.0621 28.5833 45.6147 28.7256 44.8932 27.8765C44.1943 27.0497 44.7579 25.6583 45.1908 24.956C46.7735 22.3777 49.1995 20.0261 51.3548 17.9057C54.3264 14.9807 59.3947 11.8779 58.9573 7.10807C58.6236 3.45848 55.2057 2.12045 52.0538 3.4896C50.1599 4.31198 48.5952 5.6189 47.3597 7.25032C45.7454 9.37962 44.8842 12.3046 42.9588 14.1806C42.2644 14.8562 41.5835 16.2921 40.0323 14.8829C39.3424 14.2561 39.5498 12.5847 39.622 11.7267C39.7167 10.6021 39.9602 9.50409 39.9241 8.37054C39.8655 6.45462 39.2207 4.51202 37.9626 3.02729C35.3022 -0.102206 30.7344 0.035598 28.9668 3.9608C27.9117 6.30792 28.3761 8.99288 28.818 11.4289C29.4674 15.0252 30.4188 18.5547 29.6838 22.2177C29.517 23.0578 30.8201 23.4179 30.9869 22.5733Z" fill="#46A358"/>
<path d="M30.6849 31.006C30.0491 35.5891 29.0075 40.0788 27.5555 44.4797C27.285 45.2976 28.5926 45.6488 28.8587 44.8353C30.3106 40.4345 31.3522 35.9447 31.988 31.3616C32.1053 30.517 30.8021 30.1569 30.6849 31.006Z" fill="#46A358"/>
<path d="M14.5059 43.973C14.3301 40.4435 11.8455 38.0608 8.98673 36.2471C7.13346 35.0691 5.10434 34.0867 3.5126 32.553C2.82721 31.8951 1.55111 30.6193 1.48348 29.5969C1.25351 26.1874 5.4786 28.8412 6.4165 29.628C7.07484 30.1837 8.0353 29.2413 7.37245 28.6856C5.89795 27.4454 3.25107 25.8317 1.22645 26.7653C-0.405863 27.5165 -0.135313 29.3791 0.491461 30.7216C3.12932 36.4249 12.806 37.0784 13.1532 43.973C13.1938 44.8265 14.551 44.831 14.5059 43.973Z" fill="#46A358"/>
<path d="M44.8391 45.2931C46.5256 42.786 48.7486 40.7367 51.4721 39.3587C53.9522 38.1051 57.0274 37.8873 59.2234 36.1136C61.744 34.0776 61.8748 29.0856 57.7038 29.2145C56.8335 29.2412 56.8335 30.5747 57.7038 30.5481C59.3496 30.7703 60.017 31.6683 59.7149 33.2375C59.3767 34.1399 58.804 34.8511 57.9969 35.3668C57.0094 36.0558 55.8099 36.3714 54.6736 36.727C53.2262 37.1805 51.8148 37.6561 50.4756 38.3674C47.6889 39.8521 45.4118 42.0303 43.6668 44.6219C43.1843 45.3376 44.3567 46.0044 44.8391 45.2931Z" fill="#46A358"/>
<path d="M48.5141 33.562C42.7829 34.6289 40.6681 40.2522 39.3109 45.1731C39.0809 46.0044 40.3886 46.3556 40.614 45.5287C41.8495 41.0523 43.6307 35.8246 48.8748 34.8511C49.7271 34.6866 49.3663 33.402 48.5141 33.562Z" fill="#46A358"/>
<path d="M18.2937 13.2648C17.6218 10.6021 18.4605 7.68598 20.6339 5.89896C21.0713 5.52111 21.5673 5.23217 22.1129 5.03213C23.6145 5.34775 24.3134 6.13901 24.2097 7.40592C24.2368 8.14384 24.0925 8.87287 23.9166 9.58412C23.5604 11.02 22.9336 12.3847 22.4692 13.7894C21.2742 17.4079 19.5562 23.3246 22.7848 26.4051C23.0959 26.703 23.5784 26.2318 23.2628 25.9339C20.431 23.2356 21.883 18.048 22.8524 14.8162C23.6911 12.0157 25.9683 8.29498 24.4307 5.35219C23.2312 3.05841 20.4806 4.921 19.3127 6.26348C17.5857 8.25053 17.0041 10.9222 17.6398 13.4426C17.7481 13.8605 18.3974 13.6827 18.2937 13.2648Z" fill="#46A358"/>
<path d="M32.5877 24.0624C32.9755 23.2133 33.7601 22.0131 34.8107 21.8709C36.4115 21.653 37.2367 23.6356 36.3799 24.947C35.5728 26.1828 34.0352 27.0452 32.7095 27.5742C30.5045 28.4499 29.0255 29.659 27.4247 31.3883C27.1316 31.7039 27.6096 32.1795 27.9027 31.8595C28.8722 30.8059 29.8642 29.7124 31.1268 28.9833C32.1323 28.401 33.3002 28.1743 34.3102 27.6053C35.5412 26.9074 37.5343 25.4004 37.6786 23.8801C37.7958 22.6532 36.4837 21.2307 35.2572 21.1552C33.7782 21.0618 32.5426 22.5554 32.006 23.729C31.8257 24.1113 32.4119 24.4536 32.5877 24.0624Z" fill="#46A358"/>
<path d="M7.3003 24.8359C7.4491 23.6668 7.89551 23.2356 8.63501 23.5512C8.89654 23.5557 9.11298 23.649 9.29335 23.8313C9.64958 24.0625 9.88405 24.4047 10.096 24.7648C10.4748 25.4094 10.6506 26.1606 10.9302 26.8452C11.2864 27.7254 11.7554 28.4411 12.5625 28.9656C12.9277 29.2057 13.2659 28.6278 12.9052 28.3877C10.9212 27.0897 11.4758 23.7202 8.99575 22.9022C7.50772 22.4132 6.01068 23.6846 6.71862 25.1693C6.90349 25.5605 7.48517 25.2227 7.3003 24.8359Z" fill="#46A358"/>
<path d="M31.5326 7.58379C31.1809 5.66342 33.2325 4.13423 34.8017 5.5345C35.6675 6.30799 36.0012 7.73048 36.0057 8.84181C36.0147 10.3488 35.3158 11.6957 35.6134 13.2071C35.6945 13.6294 36.3484 13.4516 36.2672 13.0293C35.8929 11.1311 36.9661 9.31301 36.4836 7.34374C36.1951 6.16574 35.6089 4.85437 34.3733 4.40984C32.1458 3.61413 30.509 5.73899 30.8787 7.75716C30.9599 8.17946 31.6092 8.00165 31.5326 7.58379Z" fill="#46A358"/>
<path d="M31.1944 11.98C32.2946 14.2605 32.8357 16.2609 32.7546 18.7902C32.741 19.2214 33.4174 19.217 33.4309 18.7902C33.5166 16.1319 32.9304 14.0293 31.7806 11.6466C31.5912 11.2599 31.0095 11.5977 31.1944 11.98Z" fill="#46A358"/>
<path d="M48.735 10.073C49.3888 8.60165 50.6243 7.67258 52.0538 6.97467C52.4641 6.76129 52.8879 6.58793 53.3298 6.45012C55.2372 7.09025 55.7197 7.97486 54.7773 9.11286C54.3264 9.81077 53.6725 10.4376 53.1089 11.051C50.9625 13.3848 48.6448 15.5452 46.1963 17.5634C45.8627 17.839 46.3406 18.3102 46.6743 18.0346C48.8883 16.212 50.9941 14.2739 52.9601 12.1935C54.1415 10.9443 56.4096 9.09063 55.9136 7.11692C54.9261 3.20505 48.9785 7.86817 48.1488 9.73965C47.9775 10.1264 48.5637 10.4642 48.735 10.073Z" fill="#46A358"/>
<path d="M44.9158 19.9861C42.7559 21.5508 41.4437 23.8313 41.1957 26.4585C41.1551 26.8852 41.8315 26.8808 41.8721 26.4585C42.0976 24.0847 43.306 21.9731 45.2585 20.5595C45.6057 20.3106 45.2675 19.7283 44.9158 19.9861Z" fill="#46A358"/>
<path d="M49.195 31.1083C49.6369 30.846 50.0788 30.5704 50.5432 30.3437C50.8949 30.1525 51.2647 30.0058 51.6525 29.9036C52.3785 29.6058 52.622 30.1614 52.3785 31.5706C51.9005 32.4997 49.3122 32.5352 48.5096 32.4863C46.503 32.3707 44.6137 31.8284 42.6341 32.4285C42.2193 32.553 42.3952 33.1976 42.8145 33.0731C45.1908 32.3485 47.504 33.4021 49.9029 33.1398C51.2061 32.9931 53.0503 32.4019 53.6996 31.1572C54.0604 30.4637 53.9747 29.548 53.1856 29.1701C51.8915 28.5522 49.8714 29.9214 48.8523 30.5304C48.4825 30.7571 48.8207 31.335 49.195 31.1083Z" fill="#46A358"/>
<path d="M39.1395 33.5886C35.6224 36.4025 34.3417 40.67 33.9855 44.973C33.9495 45.3998 34.6258 45.3998 34.6619 44.973C35.0046 40.8345 36.2356 36.7626 39.6175 34.0598C39.9557 33.7887 39.4732 33.3219 39.1395 33.5886Z" fill="#46A358"/>
<path d="M24.0022 34.7223C22.9561 36.5093 22.9877 38.4563 23.2176 40.4567C23.4115 42.1371 23.6325 43.7863 24.8094 45.0932C25.098 45.4132 25.5759 44.942 25.2873 44.622C24.133 43.3417 23.9887 41.5636 23.8354 39.9277C23.6731 38.2252 23.6956 36.576 24.5884 35.0557C24.8049 34.6867 24.2232 34.3533 24.0022 34.7223Z" fill="#46A358"/>
<path d="M5.34334 30.3303C3.38636 30.357 4.16193 32.3885 5.20806 33.1175C6.51572 34.0288 8.00374 34.6378 9.39257 35.4069C11.0294 36.3137 11.6877 37.8429 12.9458 39.1187C13.2479 39.4254 13.7259 38.9542 13.4238 38.6475C12.1747 37.3806 11.5705 35.8647 9.96072 34.9579C9.14907 34.5 8.29684 34.1133 7.48068 33.6732C7.05682 33.4465 6.63296 33.2198 6.22713 32.9664C6.0648 32.8686 5.89796 32.7664 5.73563 32.6686C4.92849 32.3663 4.80224 31.8106 5.34784 31.0016C5.77621 30.9927 5.77622 30.3259 5.34334 30.3303Z" fill="#46A358"/>
<path d="M56.2383 33.402C56.2608 34.2911 55.846 34.7756 54.9848 34.8601C54.5699 35.0245 54.1596 35.1846 53.7447 35.349C53.127 35.5935 52.5047 35.838 51.887 36.0825C50.444 36.6515 48.9966 37.225 47.5536 37.794C47.1523 37.9495 47.3282 38.5986 47.734 38.4385C49.3844 37.7851 51.0347 37.1361 52.6851 36.4826C53.9071 35.9981 55.4672 35.6513 56.5539 34.8956C57.4964 34.2377 57.5234 32.873 56.2338 32.7352C55.8054 32.6863 55.8099 33.3576 56.2383 33.402Z" fill="#46A358"/>
<path d="M46.0025 38.7186C44.1898 40.4078 42.7604 42.3904 41.7503 44.6397C41.5745 45.0265 42.1561 45.3688 42.3365 44.9776C43.324 42.7816 44.7083 40.8434 46.4849 39.1942C46.7961 38.8964 46.3181 38.4252 46.0025 38.7186Z" fill="#46A358"/>
<path d="M14.5511 41.6347C15.0696 42.3904 15.4033 43.2038 15.5611 44.1018C15.6333 44.5241 16.2871 44.3463 16.215 43.924C16.0481 42.9771 15.6829 42.0925 15.1373 41.2968C14.8938 40.9456 14.3076 41.279 14.5511 41.6347Z" fill="#46A358"/>
</g>
<defs>
<clipPath id="clip0_1_365">
<rect width="61" height="46" fill="white"/>
</clipPath>
</defs>
</svg>
